<?xml version="1.0" encoding="utf-8"?>
<!-- Generator: Adobe Illustrator 25.0.0, SVG Export Plug-In . SVG Version: 6.00 Build 0)  -->
<svg version="1.1" id="Layer_1" xmlns="http://www.w3.org/2000/svg" xmlns:xlink="http://www.w3.org/1999/xlink" x="0px" y="0px"
	 viewBox="0 0 400 300" style="enable-background:new 0 0 400 300;" xml:space="preserve">
<style type="text/css">
	.st0{fill:#333333;}
</style>
<g>
	<path class="st0" d="M89.4,168.6c0-3.1,0.8-5.3,2.4-6.6c1.6-1.3,3.6-1.9,6-1.9c2.3,0,4.3,0.6,6,1.9c1.7,1.3,2.6,3.5,2.6,6.6
		c0,3-0.9,5.2-2.6,6.5c-1.7,1.3-3.7,2-6,2c-2.4,0-4.4-0.7-6-2C90.2,173.8,89.4,171.6,89.4,168.6z"/>
	<path class="st0" d="M147.6,96.4c10.3,0,18.1,1.5,23.4,4.4c5.3,3,7.9,8.1,7.9,15.4c0,4.6-1.1,8.4-3.4,11.5c-2.3,3.1-5.6,5-9.9,5.8
		v0.6c2.9,0.5,5.5,1.5,7.9,2.8c2.4,1.4,4.2,3.3,5.6,5.9c1.4,2.6,2.1,5.9,2.1,10c0,7.2-2.5,12.8-7.6,16.8c-5.1,4-12,6-20.8,6h-29
		V96.4H147.6z M149.4,128.7c5.6,0,9.5-0.9,11.6-2.7c2.1-1.8,3.2-4.4,3.2-7.9c0-3.6-1.3-6.1-3.8-7.7c-2.6-1.6-6.6-2.3-12-2.3h-10.4
		v20.5H149.4z M137.9,140.2v23.6h12.9c5.8,0,9.8-1.1,12-3.3c2.3-2.2,3.4-5.2,3.4-8.9c0-3.4-1.2-6.2-3.5-8.3s-6.5-3.2-12.6-3.2H137.9
		z"/>
	<path class="st0" d="M220,114.4c7.8,0,13.7,1.7,17.7,5.1c4,3.4,6,8.7,6,15.8v40.4h-9.9l-2.8-8.3h-0.4c-2.6,3.3-5.3,5.6-8.2,7.2
		c-2.9,1.5-6.8,2.3-11.8,2.3c-5.4,0-9.9-1.5-13.4-4.6c-3.6-3-5.3-7.7-5.3-14.1c0-6.2,2.3-10.9,6.8-14c4.6-3.1,11.4-4.8,20.7-5.2
		l10.4-0.3v-3c0-3.8-0.9-6.5-2.8-8.2c-1.9-1.7-4.4-2.5-7.8-2.5c-3,0-5.9,0.4-8.7,1.3c-2.8,0.9-5.5,1.9-8.3,3.1l-4.4-9.8
		c3-1.6,6.3-2.8,10.2-3.8C211.9,114.9,215.9,114.4,220,114.4z M222.6,147.5c-6.1,0.2-10.4,1.3-12.8,3.2c-2.4,1.9-3.6,4.4-3.6,7.6
		c0,2.9,0.8,4.9,2.5,6.2s3.9,1.8,6.6,1.8c4.1,0,7.5-1.2,10.3-3.5c2.8-2.3,4.2-5.8,4.2-10.4v-5.1L222.6,147.5z"/>
	<path class="st0" d="M275.2,131.4c0,1.9-0.1,4-0.2,6.1c-0.1,2.1-0.3,4.2-0.4,6.1h0.3c0.9-1.3,2-2.8,3.3-4.6
		c1.3-1.7,2.6-3.2,3.8-4.6l17.8-19h15.9l-24.1,26l25.6,34.2h-16.3l-18.6-25.8l-7,5.8v20h-13.9V91.3h13.9V131.4z"/>
</g>
</svg>
